<?xml version="1.0" encoding="UTF-8"?>
<!DOCTYPE svg PUBLIC "-//W3C//DTD SVG 1.1//EN" "http://www.w3.org/Graphics/SVG/1.1/DTD/svg11.dtd">
<svg xmlns="http://www.w3.org/2000/svg" version="1.1" width="130px" height="130px" style="shape-rendering:geometricPrecision; text-rendering:geometricPrecision; image-rendering:optimizeQuality; fill-rule:evenodd; clip-rule:evenodd" xmlns:xlink="http://www.w3.org/1999/xlink">
<g><path style="opacity:0.012" fill="#fefffe" d="M 12.5,2.5 C 12.8966,1.47498 13.5632,1.30831 14.5,2C 13.9056,2.46434 13.2389,2.63101 12.5,2.5 Z"/></g>
<g><path style="opacity:0.012" fill="#fefffe" d="M 115.5,1.5 C 116.833,2.16667 116.833,2.16667 115.5,1.5 Z"/></g>
<g><path style="opacity:0.947" fill="#fefffe" d="M 16.5,5.5 C 20.2949,6.61667 24.2949,7.28333 28.5,7.5C 29.795,8.48837 31.1283,9.48837 32.5,10.5C 32.427,12.0269 33.0937,13.0269 34.5,13.5C 35.1695,16.8489 36.8361,19.5156 39.5,21.5C 40.0798,23.7488 41.4131,25.4154 43.5,26.5C 44.4409,31.1521 45.9409,31.8188 48,28.5C 48.654,25.4782 47.4874,23.4782 44.5,22.5C 44.5,21.1667 44.5,19.8333 44.5,18.5C 45.8333,17.1667 47.1667,15.8333 48.5,14.5C 51.0098,14.0733 53.3432,13.4067 55.5,12.5C 58.4352,11.7308 61.4352,11.0641 64.5,10.5C 70.0064,11.3821 75.3397,12.7154 80.5,14.5C 80.8417,15.3382 81.5084,15.6716 82.5,15.5C 82.9321,16.7095 83.5987,17.7095 84.5,18.5C 84.5,19.8333 84.5,21.1667 84.5,22.5C 80.466,24.1691 79.7993,26.5024 82.5,29.5C 83.3013,31.7929 83.968,31.4596 84.5,28.5C 88.2371,24.6979 91.2371,20.3645 93.5,15.5C 94.3382,15.1583 94.6716,14.4916 94.5,13.5C 95.9774,11.193 97.9774,9.35968 100.5,8C 104.469,7.14734 108.469,6.48067 112.5,6C 115.271,2.34599 116.605,2.84599 116.5,7.5C 115.833,7.5 115.5,7.83333 115.5,8.5C 114.833,8.5 114.5,8.83333 114.5,9.5C 112.447,9.40206 110.78,10.0687 109.5,11.5C 107.901,11.2322 106.568,11.5655 105.5,12.5C 104.5,12.5 103.5,12.5 102.5,12.5C 100.275,11.6679 98.9419,12.6679 98.5,15.5C 97.6618,15.8417 97.3284,16.5084 97.5,17.5C 95.7497,18.6594 94.7497,20.326 94.5,22.5C 93.6618,22.8417 93.3284,23.5084 93.5,24.5C 92.6618,24.8417 92.3284,25.5084 92.5,26.5C 90.7497,27.6594 89.7497,29.326 89.5,31.5C 88.6618,31.8417 88.3284,32.5084 88.5,33.5C 87.5155,35.5979 87.8489,37.5979 89.5,39.5C 89.4387,41.864 89.4387,44.1973 89.5,46.5C 89.427,48.0269 90.0937,49.0269 91.5,49.5C 91.4701,50.4972 91.9701,51.1639 93,51.5C 95.1351,50.8729 97.3018,50.3729 99.5,50C 103.656,43.6801 108.656,38.1801 114.5,33.5C 118.263,33.1428 121.93,32.3095 125.5,31C 126.252,30.3292 126.586,29.4959 126.5,28.5C 127.222,27.4489 128.222,26.7822 129.5,26.5C 129.5,28.8333 129.5,31.1667 129.5,33.5C 128.833,33.5 128.5,33.8333 128.5,34.5C 125.99,34.9267 123.657,35.5933 121.5,36.5C 118.189,36.883 115.189,37.883 112.5,39.5C 111.833,39.5 111.5,39.8333 111.5,40.5C 110.662,40.8417 110.328,41.5084 110.5,42.5C 109.833,42.5 109.5,42.8333 109.5,43.5C 108.662,43.8417 108.328,44.5084 108.5,45.5C 107.833,45.5 107.5,45.8333 107.5,46.5C 106.662,46.8417 106.328,47.5084 106.5,48.5C 105.094,48.9731 104.427,49.9731 104.5,51.5C 103.094,51.9731 102.427,52.9731 102.5,54.5C 101.833,54.5 101.5,54.8333 101.5,55.5C 100.508,55.3284 99.8417,55.6618 99.5,56.5C 98.448,56.3505 97.448,56.5172 96.5,57C 97.3281,58.9923 98.6614,60.4923 100.5,61.5C 100.427,63.0269 101.094,64.0269 102.5,64.5C 103.34,66.8525 104.674,68.8525 106.5,70.5C 106.427,72.0269 107.094,73.0269 108.5,73.5C 108.328,74.4916 108.662,75.1583 109.5,75.5C 109.427,77.0269 110.094,78.0269 111.5,78.5C 111.66,80.153 112.326,81.4863 113.5,82.5C 113.427,84.0269 114.094,85.0269 115.5,85.5C 115.328,86.4916 115.662,87.1583 116.5,87.5C 116.66,89.153 117.326,90.4863 118.5,91.5C 118.328,92.4916 118.662,93.1583 119.5,93.5C 119.328,94.4916 119.662,95.1583 120.5,95.5C 120.402,97.5529 121.069,99.2196 122.5,100.5C 123.973,106.579 124.307,112.579 123.5,118.5C 122.326,119.514 121.66,120.847 121.5,122.5C 120.833,122.5 120.5,122.833 120.5,123.5C 119.833,123.5 119.5,123.833 119.5,124.5C 116.57,125.299 113.57,125.632 110.5,125.5C 108.151,123.659 105.485,122.326 102.5,121.5C 101.486,120.326 100.153,119.66 98.5,119.5C 98.0269,118.094 97.0269,117.427 95.5,117.5C 95.1583,116.662 94.4916,116.328 93.5,116.5C 93.0269,115.094 92.0269,114.427 90.5,114.5C 90.0269,113.094 89.0269,112.427 87.5,112.5C 87.0269,111.094 86.0269,110.427 84.5,110.5C 83.625,108.194 82.2916,107.527 80.5,108.5C 79.8333,108.5 79.5,108.833 79.5,109.5C 78.8333,109.5 78.5,109.833 78.5,110.5C 69.1667,115.833 59.8333,115.833 50.5,110.5C 49.1233,107.274 47.4566,106.941 45.5,109.5C 44.8333,109.5 44.5,109.833 44.5,110.5C 43.5084,110.328 42.8417,110.662 42.5,111.5C 41.8333,111.5 41.5,111.833 41.5,112.5C 39.9731,112.427 38.9731,113.094 38.5,114.5C 36.9731,114.427 35.9731,115.094 35.5,116.5C 34.5084,116.328 33.8417,116.662 33.5,117.5C 31.9731,117.427 30.9731,118.094 30.5,119.5C 29.5084,119.328 28.8417,119.662 28.5,120.5C 27.5084,120.328 26.8417,120.662 26.5,121.5C 23.5152,122.326 20.8485,123.659 18.5,125.5C 15.4299,125.632 12.4299,125.299 9.5,124.5C 8.15351,122.463 6.82018,120.463 5.5,118.5C 4.61816,111.759 5.28483,105.093 7.5,98.5C 8.40397,97.791 8.73731,96.791 8.5,95.5C 9.33825,95.1583 9.67158,94.4916 9.5,93.5C 11.0075,91.8185 12.0075,89.8185 12.5,87.5C 13.3382,87.1583 13.6716,86.4916 13.5,85.5C 14.3382,85.1583 14.6716,84.4916 14.5,83.5C 15.9063,83.0269 16.573,82.0269 16.5,80.5C 17.3382,80.1583 17.6716,79.4916 17.5,78.5C 18.9063,78.0269 19.573,77.0269 19.5,75.5C 23.9342,69.4875 28.2676,63.3208 32.5,57C 30.8455,56.3923 29.1789,55.8923 27.5,55.5C 26.4884,54.1283 25.4884,52.795 24.5,51.5C 24.573,49.9731 23.9063,48.9731 22.5,48.5C 22.6716,47.5084 22.3382,46.8417 21.5,46.5C 21.0679,45.2905 20.4013,44.2905 19.5,43.5C 19.573,41.9731 18.9063,40.9731 17.5,40.5C 16.9423,39.2101 15.9423,38.3768 14.5,38C 12.0796,37.7096 9.7463,37.2096 7.5,36.5C 5.34317,35.5933 3.00983,34.9267 0.5,34.5C 0.5,33.8333 0.166667,33.5 -0.5,33.5C -0.5,31.1667 -0.5,28.8333 -0.5,26.5C 0.777652,26.7822 1.77765,27.4489 2.5,28.5C 2.69408,30.9118 4.02741,31.9118 6.5,31.5C 8.90517,32.7682 11.5718,33.4349 14.5,33.5C 17.8076,36.4715 21.141,39.4715 24.5,42.5C 25.0798,44.7488 26.4131,46.4154 28.5,47.5C 28.4142,48.4959 28.7476,49.3292 29.5,50C 31.6982,50.3729 33.8649,50.8729 36,51.5C 38.0853,49.918 39.5853,47.918 40.5,45.5C 40.1951,43.4842 39.8618,41.4842 39.5,39.5C 41.1511,37.5979 41.4845,35.5979 40.5,33.5C 40.6716,32.5084 40.3382,31.8417 39.5,31.5C 39.2503,29.326 38.2503,27.6594 36.5,26.5C 36.6716,25.5084 36.3382,24.8417 35.5,24.5C 35.6716,23.5084 35.3382,22.8417 34.5,22.5C 34.2503,20.326 33.2503,18.6594 31.5,17.5C 31.6716,16.5084 31.3382,15.8417 30.5,15.5C 30.0581,12.6679 28.7248,11.6679 26.5,12.5C 25.5,12.5 24.5,12.5 23.5,12.5C 22.4324,11.5655 21.099,11.2322 19.5,11.5C 18.2196,10.0687 16.5529,9.40206 14.5,9.5C 12.5636,7.75681 12.2302,5.75681 13.5,3.5C 14.5178,4.19251 15.5178,4.85917 16.5,5.5 Z M 84.5,28.5 C 83.968,31.4596 83.3013,31.7929 82.5,29.5C 83.1667,29.1667 83.8333,28.8333 84.5,28.5 Z"/></g>
<g><path style="opacity:0.012" fill="#fefffe" d="M 10.5,4.5 C 11.525,4.89657 11.6917,5.56323 11,6.5C 10.5357,5.90558 10.369,5.23891 10.5,4.5 Z"/></g>
<g><path style="opacity:0.012" fill="#fefffe" d="M 16.5,5.5 C 17.9464,4.38705 19.6131,4.22039 21.5,5C 19.8659,5.49351 18.1992,5.66018 16.5,5.5 Z"/></g>
<g><path style="opacity:0.012" fill="#fefffe" d="M 28.5,6.5 C 27.448,6.64945 26.448,6.48278 25.5,6C 26.7494,5.25988 27.7494,5.42654 28.5,6.5 Z"/></g>
<g><path style="opacity:0.012" fill="#fefffe" d="M 100.5,6.5 C 101.251,5.42654 102.251,5.25988 103.5,6C 102.552,6.48278 101.552,6.64945 100.5,6.5 Z"/></g>
<g><path style="opacity:0.012" fill="#fefffe" d="M 117.5,5.5 C 118.833,6.16667 118.833,6.16667 117.5,5.5 Z"/></g>
<g><path style="opacity:0.012" fill="#fefffe" d="M 28.5,6.5 C 29.8333,7.16667 29.8333,7.16667 28.5,6.5 Z"/></g>
<g><path style="opacity:0.012" fill="#fefffe" d="M 116.5,7.5 C 117.833,8.16667 117.833,8.16667 116.5,7.5 Z"/></g>
<g><path style="opacity:0.012" fill="#fefffe" d="M 62.5,9.5 C 63.6009,8.40168 64.9343,8.23502 66.5,9C 65.2068,9.49001 63.8734,9.65668 62.5,9.5 Z"/></g>
<g><path style="opacity:0.012" fill="#fefffe" d="M 115.5,8.5 C 115.833,8.5 116.167,8.5 116.5,8.5C 116.315,9.17014 115.981,9.17014 115.5,8.5 Z"/></g>
<g><path style="opacity:0.012" fill="#fefffe" d="M 14.5,9.5 C 13.8333,10.1667 13.8333,10.1667 14.5,9.5 Z"/></g>
<g><path style="opacity:0.012" fill="#fefffe" d="M 33.5,10.5 C 32.8333,9.16667 32.8333,9.16667 33.5,10.5 Z"/></g>
<g><path style="opacity:0.012" fill="#fefffe" d="M 57.5,10.5 C 58.6009,9.40168 59.9343,9.23502 61.5,10C 60.2068,10.49 58.8734,10.6567 57.5,10.5 Z"/></g>
<g><path style="opacity:0.012" fill="#fefffe" d="M 67.5,10.5 C 68.6009,9.40168 69.9343,9.23502 71.5,10C 70.2068,10.49 68.8734,10.6567 67.5,10.5 Z"/></g>
<g><path style="opacity:0.012" fill="#fefffe" d="M 114.5,9.5 C 114.833,9.5 115.167,9.5 115.5,9.5C 115.315,10.1701 114.981,10.1701 114.5,9.5 Z"/></g>
<g><path style="opacity:0.012" fill="#fefffe" d="M 15.5,10.5 C 16.8333,11.1667 16.8333,11.1667 15.5,10.5 Z"/></g>
<g><path style="opacity:0.012" fill="#fefffe" d="M 33.5,10.5 C 34.8333,11.1667 34.8333,11.1667 33.5,10.5 Z"/></g>
<g><path style="opacity:0.012" fill="#fefffe" d="M 94.5,10.5 C 95.8333,11.1667 95.8333,11.1667 94.5,10.5 Z"/></g>
<g><path style="opacity:0.012" fill="#fefffe" d="M 112.5,10.5 C 113.833,11.1667 113.833,11.1667 112.5,10.5 Z"/></g>
<g><path style="opacity:0.012" fill="#fefffe" d="M 19.5,11.5 C 19.1034,12.525 18.4368,12.6917 17.5,12C 18.0944,11.5357 18.7611,11.369 19.5,11.5 Z"/></g>
<g><path style="opacity:0.012" fill="#fefffe" d="M 55.5,12.5 C 53.8008,12.6602 52.1341,12.4935 50.5,12C 52.3869,11.2204 54.0536,11.3871 55.5,12.5 Z"/></g>
<g><path style="opacity:0.012" fill="#fefffe" d="M 109.5,11.5 C 110.239,11.369 110.906,11.5357 111.5,12C 110.563,12.6917 109.897,12.525 109.5,11.5 Z"/></g>
<g><path style="opacity:0.012" fill="#fefffe" d="M 23.5,12.5 C 22.7494,13.5735 21.7494,13.7401 20.5,13C 21.448,12.5172 22.448,12.3505 23.5,12.5 Z"/></g>
<g><path style="opacity:0.012" fill="#fefffe" d="M 26.5,12.5 C 27.8333,13.1667 27.8333,13.1667 26.5,12.5 Z"/></g>
<g><path style="opacity:0.012" fill="#fefffe" d="M 34.5,12.5 C 35.8333,13.1667 35.8333,13.1667 34.5,12.5 Z"/></g>
<g><path style="opacity:0.012" fill="#fefffe" d="M 48.5,12.5 C 49.8333,13.1667 49.8333,13.1667 48.5,12.5 Z"/></g>
<g><path style="opacity:0.012" fill="#fefffe" d="M 94.5,13.5 C 93.8333,12.1667 93.8333,12.1667 94.5,13.5 Z"/></g>
<g><path style="opacity:0.012" fill="#fefffe" d="M 102.5,12.5 C 101.833,13.1667 101.833,13.1667 102.5,12.5 Z"/></g>
<g><path style="opacity:0.012" fill="#fefffe" d="M 105.5,12.5 C 106.552,12.3505 107.552,12.5172 108.5,13C 107.251,13.7401 106.251,13.5735 105.5,12.5 Z"/></g>
<g><path style="opacity:0.012" fill="#fefffe" d="M 48.5,13.5 C 48.5,13.8333 48.5,14.1667 48.5,14.5C 47.8299,14.0187 47.8299,13.6853 48.5,13.5 Z"/></g>
<g><path style="opacity:0.012" fill="#fefffe" d="M 80.5,13.5 C 81.8333,14.1667 81.8333,14.1667 80.5,13.5 Z"/></g>
<g><path style="opacity:0.012" fill="#fefffe" d="M 29.5,15.5 C 28.8333,14.1667 28.8333,14.1667 29.5,15.5 Z"/></g>
<g><path style="opacity:0.012" fill="#fefffe" d="M 82.5,14.5 C 83.8333,15.1667 83.8333,15.1667 82.5,14.5 Z"/></g>
<g><path style="opacity:0.012" fill="#fefffe" d="M 93.5,15.5 C 92.8333,14.1667 92.8333,14.1667 93.5,15.5 Z"/></g>
<g><path style="opacity:0.012" fill="#fefffe" d="M 99.5,14.5 C 100.833,15.1667 100.833,15.1667 99.5,14.5 Z"/></g>
<g><path style="opacity:0.012" fill="#fefffe" d="M 29.5,15.5 C 29.8333,15.5 30.1667,15.5 30.5,15.5C 30.3147,16.1701 29.9813,16.1701 29.5,15.5 Z"/></g>
<g><path style="opacity:0.012" fill="#fefffe" d="M 98.5,15.5 C 98.8333,15.5 99.1667,15.5 99.5,15.5C 99.3147,16.1701 98.9813,16.1701 98.5,15.5 Z"/></g>
<g><path style="opacity:0.012" fill="#fefffe" d="M 31.5,17.5 C 30.8333,18.1667 30.8333,18.1667 31.5,17.5 Z"/></g>
<g><path style="opacity:0.012" fill="#fefffe" d="M 44.5,18.5 C 43.8333,17.1667 43.8333,17.1667 44.5,18.5 Z"/></g>
<g><path style="opacity:0.012" fill="#fefffe" d="M 84.5,17.5 C 85.8333,18.1667 85.8333,18.1667 84.5,17.5 Z"/></g>
<g><path style="opacity:0.012" fill="#fefffe" d="M 97.5,17.5 C 98.8333,18.1667 98.8333,18.1667 97.5,17.5 Z"/></g>
<g><path style="opacity:0.012" fill="#fefffe" d="M 31.5,19.5 C 32.8333,20.1667 32.8333,20.1667 31.5,19.5 Z"/></g>
<g><path style="opacity:0.012" fill="#fefffe" d="M 43.5,22.5 C 42.4265,21.7494 42.2599,20.7494 43,19.5C 43.4828,20.448 43.6495,21.448 43.5,22.5 Z"/></g>
<g><path style="opacity:0.012" fill="#fefffe" d="M 85.5,22.5 C 85.3505,21.448 85.5172,20.448 86,19.5C 86.7401,20.7494 86.5735,21.7494 85.5,22.5 Z"/></g>
<g><path style="opacity:0.012" fill="#fefffe" d="M 96.5,19.5 C 97.8333,20.1667 97.8333,20.1667 96.5,19.5 Z"/></g>
<g><path style="opacity:0.012" fill="#fefffe" d="M 39.5,20.5 C 40.8333,21.1667 40.8333,21.1667 39.5,20.5 Z"/></g>
<g><path style="opacity:0.012" fill="#fefffe" d="M 95.5,21.5 C 96.8333,22.1667 96.8333,22.1667 95.5,21.5 Z"/></g>
<g><path style="opacity:0.012" fill="#fefffe" d="M 34.5,22.5 C 33.8333,23.1667 33.8333,23.1667 34.5,22.5 Z"/></g>
<g><path style="opacity:0.012" fill="#fefffe" d="M 43.5,22.5 C 43.8333,22.5 44.1667,22.5 44.5,22.5C 44.3147,23.1701 43.9813,23.1701 43.5,22.5 Z"/></g>
<g><path style="opacity:0.012" fill="#fefffe" d="M 84.5,22.5 C 84.8333,22.5 85.1667,22.5 85.5,22.5C 85.3147,23.1701 84.9813,23.1701 84.5,22.5 Z"/></g>
<g><path style="opacity:0.012" fill="#fefffe" d="M 94.5,22.5 C 94.8333,22.5 95.1667,22.5 95.5,22.5C 95.3147,23.1701 94.9813,23.1701 94.5,22.5 Z"/></g>
<g><path style="opacity:0.012" fill="#fefffe" d="M -0.5,24.5 C 0.833333,25.1667 0.833333,25.1667 -0.5,24.5 Z"/></g>
<g><path style="opacity:0.012" fill="#fefffe" d="M 35.5,24.5 C 34.8333,25.1667 34.8333,25.1667 35.5,24.5 Z"/></g>
<g><path style="opacity:0.012" fill="#fefffe" d="M 93.5,24.5 C 94.8333,25.1667 94.8333,25.1667 93.5,24.5 Z"/></g>
<g><path style="opacity:0.012" fill="#fefffe" d="M 43.5,25.5 C 44.8333,26.1667 44.8333,26.1667 43.5,25.5 Z"/></g>
<g><path style="opacity:0.012" fill="#fefffe" d="M 36.5,26.5 C 35.8333,27.1667 35.8333,27.1667 36.5,26.5 Z"/></g>
<g><path style="opacity:0.012" fill="#fefffe" d="M 92.5,26.5 C 93.8333,27.1667 93.8333,27.1667 92.5,26.5 Z"/></g>
<g><path style="opacity:0.012" fill="#fefffe" d="M 3.5,28.5 C 2.83333,27.1667 2.83333,27.1667 3.5,28.5 Z"/></g>
<g><path style="opacity:0.012" fill="#fefffe" d="M 126.5,28.5 C 125.833,27.1667 125.833,27.1667 126.5,28.5 Z"/></g>
<g><path style="opacity:0.012" fill="#fefffe" d="M 3.5,28.5 C 4.16667,28.5 4.5,28.8333 4.5,29.5C 4.16667,29.1667 3.83333,28.8333 3.5,28.5 Z"/></g>
<g><path style="opacity:0.012" fill="#fefffe" d="M 36.5,28.5 C 37.8333,29.1667 37.8333,29.1667 36.5,28.5 Z"/></g>
<g><path style="opacity:0.012" fill="#fefffe" d="M 91.5,28.5 C 92.8333,29.1667 92.8333,29.1667 91.5,28.5 Z"/></g>
<g><path style="opacity:0.012" fill="#fefffe" d="M 125.5,28.5 C 124.833,29.1667 124.833,29.1667 125.5,28.5 Z"/></g>
<g><path style="opacity:0.012" fill="#fefffe" d="M 4.5,29.5 C 5.83333,30.1667 5.83333,30.1667 4.5,29.5 Z"/></g>
<g><path style="opacity:0.012" fill="#fefffe" d="M 124.5,29.5 C 123.833,30.1667 123.833,30.1667 124.5,29.5 Z"/></g>
<g><path style="opacity:0.012" fill="#fefffe" d="M 6.5,31.5 C 7.25057,30.4265 8.25057,30.2599 9.5,31C 8.55198,31.4828 7.55198,31.6495 6.5,31.5 Z"/></g>
<g><path style="opacity:0.012" fill="#fefffe" d="M 38.5,31.5 C 37.8333,30.1667 37.8333,30.1667 38.5,31.5 Z"/></g>
<g><path style="opacity:0.012" fill="#fefffe" d="M 90.5,30.5 C 91.8333,31.1667 91.8333,31.1667 90.5,30.5 Z"/></g>
<g><path style="opacity:0.012" fill="#fefffe" d="M 119.5,31.5 C 119.897,30.475 120.563,30.3083 121.5,31C 120.906,31.4643 120.239,31.631 119.5,31.5 Z"/></g>
<g><path style="opacity:0.012" fill="#fefffe" d="M 11.5,32.5 C 11.8966,31.475 12.5632,31.3083 13.5,32C 12.9056,32.4643 12.2389,32.631 11.5,32.5 Z"/></g>
<g><path style="opacity:0.012" fill="#fefffe" d="M 38.5,31.5 C 38.8333,31.5 39.1667,31.5 39.5,31.5C 39.3147,32.1701 38.9813,32.1701 38.5,31.5 Z"/></g>
<g><path style="opacity:0.012" fill="#fefffe" d="M 89.5,31.5 C 89.8333,31.5 90.1667,31.5 90.5,31.5C 90.3147,32.1701 89.9813,32.1701 89.5,31.5 Z"/></g>
<g><path style="opacity:0.012" fill="#fefffe" d="M 115.5,32.5 C 115.897,31.475 116.563,31.3083 117.5,32C 116.906,32.4643 116.239,32.631 115.5,32.5 Z"/></g>
<g><path style="opacity:0.012" fill="#fefffe" d="M 14.5,32.5 C 15.8333,33.1667 15.8333,33.1667 14.5,32.5 Z"/></g>
<g><path style="opacity:0.012" fill="#fefffe" d="M 114.5,33.5 C 113.833,32.1667 113.833,32.1667 114.5,33.5 Z"/></g>
<g><path style="opacity:0.012" fill="#fefffe" d="M 40.5,33.5 C 39.8333,34.1667 39.8333,34.1667 40.5,33.5 Z"/></g>
<g><path style="opacity:0.012" fill="#fefffe" d="M 88.5,33.5 C 89.8333,34.1667 89.8333,34.1667 88.5,33.5 Z"/></g>
<g><path style="opacity:0.012" fill="#fefffe" d="M -0.5,34.5 C -0.166667,34.5 0.166667,34.5 0.5,34.5C 0.31468,35.1701 -0.0186536,35.1701 -0.5,34.5 Z"/></g>
<g><path style="opacity:0.012" fill="#fefffe" d="M 128.5,34.5 C 128.833,34.5 129.167,34.5 129.5,34.5C 129.5,34.8333 129.5,35.1667 129.5,35.5C 129.167,35.1667 128.833,34.8333 128.5,34.5 Z"/></g>
<g><path style="opacity:0.012" fill="#fefffe" d="M 7.5,36.5 C 6.05361,37.6129 4.38695,37.7796 2.5,37C 4.13414,36.5065 5.80081,36.3398 7.5,36.5 Z"/></g>
<g><path style="opacity:0.012" fill="#fefffe" d="M 38.5,36.5 C 39.8333,37.1667 39.8333,37.1667 38.5,36.5 Z"/></g>
<g><path style="opacity:0.012" fill="#fefffe" d="M 89.5,36.5 C 90.8333,37.1667 90.8333,37.1667 89.5,36.5 Z"/></g>
<g><path style="opacity:0.012" fill="#fefffe" d="M 121.5,36.5 C 123.199,36.3398 124.866,36.5065 126.5,37C 124.613,37.7796 122.946,37.6129 121.5,36.5 Z"/></g>
<g><path style="opacity:0.012" fill="#fefffe" d="M 10.5,39.5 C 11.2506,38.4265 12.2506,38.2599 13.5,39C 12.552,39.4828 11.552,39.6495 10.5,39.5 Z"/></g>
<g><path style="opacity:0.012" fill="#fefffe" d="M 39.5,39.5 C 38.8333,38.1667 38.8333,38.1667 39.5,39.5 Z"/></g>
<g><path style="opacity:0.012" fill="#fefffe" d="M 89.5,38.5 C 90.8333,39.1667 90.8333,39.1667 89.5,38.5 Z"/></g>
<g><path style="opacity:0.012" fill="#fefffe" d="M 115.5,39.5 C 116.251,38.4265 117.251,38.2599 118.5,39C 117.552,39.4828 116.552,39.6495 115.5,39.5 Z"/></g>
<g><path style="opacity:0.012" fill="#fefffe" d="M 14.5,39.5 C 15.8333,40.1667 15.8333,40.1667 14.5,39.5 Z"/></g>
<g><path style="opacity:0.012" fill="#fefffe" d="M 112.5,40.5 C 112.5,40.1667 112.5,39.8333 112.5,39.5C 115.167,39.8333 115.167,40.1667 112.5,40.5 Z"/></g>
<g><path style="opacity:0.012" fill="#fefffe" d="M 17.5,40.5 C 16.8333,41.1667 16.8333,41.1667 17.5,40.5 Z"/></g>
<g><path style="opacity:0.012" fill="#fefffe" d="M 111.5,40.5 C 111.833,40.5 112.167,40.5 112.5,40.5C 112.315,41.1701 111.981,41.1701 111.5,40.5 Z"/></g>
<g><path style="opacity:0.012" fill="#fefffe" d="M 25.5,42.5 C 24.8333,41.1667 24.8333,41.1667 25.5,42.5 Z"/></g>
<g><path style="opacity:0.012" fill="#fefffe" d="M 103.5,41.5 C 104.833,42.1667 104.833,42.1667 103.5,41.5 Z"/></g>
<g><path style="opacity:0.012" fill="#fefffe" d="M 18.5,43.5 C 17.8333,42.1667 17.8333,42.1667 18.5,43.5 Z"/></g>
<g><path style="opacity:0.012" fill="#fefffe" d="M 25.5,42.5 C 26.8333,43.1667 26.8333,43.1667 25.5,42.5 Z"/></g>
<g><path style="opacity:0.012" fill="#fefffe" d="M 110.5,42.5 C 111.833,43.1667 111.833,43.1667 110.5,42.5 Z"/></g>
<g><path style="opacity:0.012" fill="#fefffe" d="M 18.5,43.5 C 18.8333,43.5 19.1667,43.5 19.5,43.5C 19.3147,44.1701 18.9813,44.1701 18.5,43.5 Z"/></g>
<g><path style="opacity:0.012" fill="#fefffe" d="M 109.5,43.5 C 109.833,43.5 110.167,43.5 110.5,43.5C 110.315,44.1701 109.981,44.1701 109.5,43.5 Z"/></g>
<g><path style="opacity:0.012" fill="#fefffe" d="M 38.5,45.5 C 39.8333,46.1667 39.8333,46.1667 38.5,45.5 Z"/></g>
<g><path style="opacity:0.012" fill="#fefffe" d="M 89.5,45.5 C 90.8333,46.1667 90.8333,46.1667 89.5,45.5 Z"/></g>
<g><path style="opacity:0.012" fill="#fefffe" d="M 108.5,45.5 C 109.833,46.1667 109.833,46.1667 108.5,45.5 Z"/></g>
<g><path style="opacity:0.012" fill="#fefffe" d="M 21.5,46.5 C 20.8333,47.1667 20.8333,47.1667 21.5,46.5 Z"/></g>
<g><path style="opacity:0.012" fill="#fefffe" d="M 29.5,47.5 C 28.8333,46.1667 28.8333,46.1667 29.5,47.5 Z"/></g>
<g><path style="opacity:0.012" fill="#fefffe" d="M 107.5,46.5 C 107.833,46.5 108.167,46.5 108.5,46.5C 108.672,47.4916 108.338,48.1583 107.5,48.5C 107.5,47.8333 107.5,47.1667 107.5,46.5 Z"/></g>
<g><path style="opacity:0.012" fill="#fefffe" d="M 29.5,47.5 C 30.1667,47.5 30.5,47.8333 30.5,48.5C 30.1667,48.1667 29.8333,47.8333 29.5,47.5 Z"/></g>
<g><path style="opacity:0.012" fill="#fefffe" d="M 98.5,47.5 C 99.8333,48.1667 99.8333,48.1667 98.5,47.5 Z"/></g>
<g><path style="opacity:0.012" fill="#fefffe" d="M 22.5,48.5 C 21.8333,49.1667 21.8333,49.1667 22.5,48.5 Z"/></g>
<g><path style="opacity:0.012" fill="#fefffe" d="M 30.5,48.5 C 31.8333,49.1667 31.8333,49.1667 30.5,48.5 Z"/></g>
<g><path style="opacity:0.012" fill="#fefffe" d="M 92.5,49.5 C 91.8333,48.1667 91.8333,48.1667 92.5,49.5 Z"/></g>
<g><path style="opacity:0.012" fill="#fefffe" d="M 98.5,48.5 C 97.8333,49.1667 97.8333,49.1667 98.5,48.5 Z"/></g>
<g><path style="opacity:0.012" fill="#fefffe" d="M 106.5,48.5 C 106.833,48.5 107.167,48.5 107.5,48.5C 107.315,49.1701 106.981,49.1701 106.5,48.5 Z"/></g>
<g><path style="opacity:0.012" fill="#fefffe" d="M 35.5,49.5 C 36.8333,50.1667 36.8333,50.1667 35.5,49.5 Z"/></g>
<g><path style="opacity:0.012" fill="#fefffe" d="M 92.5,49.5 C 93.8333,50.1667 93.8333,50.1667 92.5,49.5 Z"/></g>
<g><path style="opacity:0.012" fill="#fefffe" d="M 23.5,51.5 C 22.8333,50.1667 22.8333,50.1667 23.5,51.5 Z"/></g>
<g><path style="opacity:0.012" fill="#fefffe" d="M 105.5,50.5 C 106.833,51.1667 106.833,51.1667 105.5,50.5 Z"/></g>
<g><path style="opacity:0.012" fill="#fefffe" d="M 23.5,51.5 C 23.8333,51.5 24.1667,51.5 24.5,51.5C 24.3147,52.1701 23.9813,52.1701 23.5,51.5 Z"/></g>
<g><path style="opacity:0.012" fill="#fefffe" d="M 104.5,51.5 C 104.833,51.5 105.167,51.5 105.5,51.5C 105.315,52.1701 104.981,52.1701 104.5,51.5 Z"/></g>
<g><path style="opacity:0.012" fill="#fefffe" d="M 103.5,53.5 C 104.833,54.1667 104.833,54.1667 103.5,53.5 Z"/></g>
<g><path style="opacity:0.012" fill="#fefffe" d="M 102.5,54.5 C 102.833,54.5 103.167,54.5 103.5,54.5C 103.315,55.1701 102.981,55.1701 102.5,54.5 Z"/></g>
<g><path style="opacity:0.012" fill="#fefffe" d="M 27.5,55.5 C 26.8333,56.1667 26.8333,56.1667 27.5,55.5 Z"/></g>
<g><path style="opacity:0.012" fill="#fefffe" d="M 101.5,55.5 C 101.833,55.5 102.167,55.5 102.5,55.5C 102.315,56.1701 101.981,56.1701 101.5,55.5 Z"/></g>
<g><path style="opacity:0.012" fill="#fefffe" d="M 99.5,56.5 C 100.833,57.1667 100.833,57.1667 99.5,56.5 Z"/></g>
<g><path style="opacity:0.012" fill="#fefffe" d="M 99.5,57.5 C 98.8333,58.1667 98.8333,58.1667 99.5,57.5 Z"/></g>
<g><path style="opacity:0.012" fill="#fefffe" d="M 27.5,60.5 C 28.8333,61.1667 28.8333,61.1667 27.5,60.5 Z"/></g>
<g><path style="opacity:0.012" fill="#fefffe" d="M 100.5,60.5 C 101.833,61.1667 101.833,61.1667 100.5,60.5 Z"/></g>
<g><path style="opacity:0.012" fill="#fefffe" d="M 102.5,63.5 C 103.833,64.1667 103.833,64.1667 102.5,63.5 Z"/></g>
<g><path style="opacity:0.012" fill="#fefffe" d="M 106.5,69.5 C 107.833,70.1667 107.833,70.1667 106.5,69.5 Z"/></g>
<g><path style="opacity:0.012" fill="#fefffe" d="M 108.5,72.5 C 109.833,73.1667 109.833,73.1667 108.5,72.5 Z"/></g>
<g><path style="opacity:0.012" fill="#fefffe" d="M 19.5,75.5 C 18.8333,74.1667 18.8333,74.1667 19.5,75.5 Z"/></g>
<g><path style="opacity:0.012" fill="#fefffe" d="M 110.5,75.5 C 109.833,74.1667 109.833,74.1667 110.5,75.5 Z"/></g>
<g><path style="opacity:0.012" fill="#fefffe" d="M 18.5,75.5 C 17.8333,76.1667 17.8333,76.1667 18.5,75.5 Z"/></g>
<g><path style="opacity:0.012" fill="#fefffe" d="M 110.5,75.5 C 111.833,76.1667 111.833,76.1667 110.5,75.5 Z"/></g>
<g><path style="opacity:0.012" fill="#fefffe" d="M 17.5,78.5 C 16.8333,77.1667 16.8333,77.1667 17.5,78.5 Z"/></g>
<g><path style="opacity:0.012" fill="#fefffe" d="M 111.5,77.5 C 112.833,78.1667 112.833,78.1667 111.5,77.5 Z"/></g>
<g><path style="opacity:0.012" fill="#fefffe" d="M 16.5,80.5 C 15.8333,79.1667 15.8333,79.1667 16.5,80.5 Z"/></g>
<g><path style="opacity:0.012" fill="#fefffe" d="M 15.5,80.5 C 14.8333,81.1667 14.8333,81.1667 15.5,80.5 Z"/></g>
<g><path style="opacity:0.012" fill="#fefffe" d="M 114.5,82.5 C 114.167,82.5 113.833,82.5 113.5,82.5C 113.833,79.8333 114.167,79.8333 114.5,82.5 Z"/></g>
<g><path style="opacity:0.012" fill="#fefffe" d="M 14.5,83.5 C 13.8333,82.1667 13.8333,82.1667 14.5,83.5 Z"/></g>
<g><path style="opacity:0.012" fill="#fefffe" d="M 114.5,82.5 C 115.833,83.1667 115.833,83.1667 114.5,82.5 Z"/></g>
<g><path style="opacity:0.012" fill="#fefffe" d="M 13.5,85.5 C 12.8333,84.1667 12.8333,84.1667 13.5,85.5 Z"/></g>
<g><path style="opacity:0.012" fill="#fefffe" d="M 115.5,84.5 C 116.833,85.1667 116.833,85.1667 115.5,84.5 Z"/></g>
<g><path style="opacity:0.012" fill="#fefffe" d="M 12.5,87.5 C 11.8333,86.1667 11.8333,86.1667 12.5,87.5 Z"/></g>
<g><path style="opacity:0.012" fill="#fefffe" d="M 116.5,86.5 C 117.833,87.1667 117.833,87.1667 116.5,86.5 Z"/></g>
<g><path style="opacity:0.012" fill="#fefffe" d="M 118.5,91.5 C 118.369,90.7611 118.536,90.0944 119,89.5C 119.692,90.4368 119.525,91.1034 118.5,91.5 Z"/></g>
<g><path style="opacity:0.012" fill="#fefffe" d="M 9.5,93.5 C 8.83333,92.1667 8.83333,92.1667 9.5,93.5 Z"/></g>
<g><path style="opacity:0.012" fill="#fefffe" d="M 119.5,92.5 C 120.833,93.1667 120.833,93.1667 119.5,92.5 Z"/></g>
<g><path style="opacity:0.012" fill="#fefffe" d="M 8.5,95.5 C 7.83333,94.1667 7.83333,94.1667 8.5,95.5 Z"/></g>
<g><path style="opacity:0.012" fill="#fefffe" d="M 120.5,94.5 C 121.833,95.1667 121.833,95.1667 120.5,94.5 Z"/></g>
<g><path style="opacity:0.012" fill="#fefffe" d="M 7.5,98.5 C 7.16667,98.5 6.83333,98.5 6.5,98.5C 6.83333,95.8333 7.16667,95.8333 7.5,98.5 Z"/></g>
<g><path style="opacity:0.012" fill="#fefffe" d="M 6.5,98.5 C 6.63101,99.2389 6.46434,99.9056 6,100.5C 5.30831,99.5632 5.47498,98.8966 6.5,98.5 Z"/></g>
<g><path style="opacity:0.012" fill="#fefffe" d="M 122.5,100.5 C 122.369,99.7611 122.536,99.0944 123,98.5C 123.692,99.4368 123.525,100.103 122.5,100.5 Z"/></g>
<g><path style="opacity:0.012" fill="#fefffe" d="M 4.5,101.5 C 5.52502,101.897 5.69169,102.563 5,103.5C 4.53566,102.906 4.36899,102.239 4.5,101.5 Z"/></g>
<g><path style="opacity:0.012" fill="#fefffe" d="M 123.5,101.5 C 124.525,101.897 124.692,102.563 124,103.5C 123.536,102.906 123.369,102.239 123.5,101.5 Z"/></g>
<g><path style="opacity:0.012" fill="#fefffe" d="M 3.5,105.5 C 4.52502,105.897 4.69169,106.563 4,107.5C 3.53566,106.906 3.36899,106.239 3.5,105.5 Z"/></g>
<g><path style="opacity:0.012" fill="#fefffe" d="M 124.5,105.5 C 125.525,105.897 125.692,106.563 125,107.5C 124.536,106.906 124.369,106.239 124.5,105.5 Z"/></g>
<g><path style="opacity:0.012" fill="#fefffe" d="M 80.5,108.5 C 81.8333,109.167 81.8333,109.167 80.5,108.5 Z"/></g>
<g><path style="opacity:0.012" fill="#fefffe" d="M 45.5,109.5 C 46.8333,110.167 46.8333,110.167 45.5,109.5 Z"/></g>
<g><path style="opacity:0.012" fill="#fefffe" d="M 79.5,109.5 C 79.8333,109.5 80.1667,109.5 80.5,109.5C 80.3147,110.17 79.9813,110.17 79.5,109.5 Z"/></g>
<g><path style="opacity:0.012" fill="#fefffe" d="M 44.5,110.5 C 44.8333,110.5 45.1667,110.5 45.5,110.5C 45.3147,111.17 44.9813,111.17 44.5,110.5 Z"/></g>
<g><path style="opacity:0.012" fill="#fefffe" d="M 50.5,110.5 C 50.5,110.833 50.5,111.167 50.5,111.5C 49.8299,111.019 49.8299,110.685 50.5,110.5 Z"/></g>
<g><path style="opacity:0.012" fill="#fefffe" d="M 78.5,110.5 C 78.8333,110.5 79.1667,110.5 79.5,110.5C 79.3147,111.17 78.9813,111.17 78.5,110.5 Z"/></g>
<g><path style="opacity:0.012" fill="#fefffe" d="M 84.5,110.5 C 83.8333,111.167 83.8333,111.167 84.5,110.5 Z"/></g>
<g><path style="opacity:0.012" fill="#fefffe" d="M 42.5,111.5 C 43.8333,112.167 43.8333,112.167 42.5,111.5 Z"/></g>
<g><path style="opacity:0.012" fill="#fefffe" d="M 50.5,111.5 C 51.8333,112.167 51.8333,112.167 50.5,111.5 Z"/></g>
<g><path style="opacity:0.012" fill="#fefffe" d="M 78.5,111.5 C 77.8333,112.167 77.8333,112.167 78.5,111.5 Z"/></g>
<g><path style="opacity:0.012" fill="#fefffe" d="M 41.5,112.5 C 41.8333,112.5 42.1667,112.5 42.5,112.5C 42.3147,113.17 41.9813,113.17 41.5,112.5 Z"/></g>
<g><path style="opacity:0.012" fill="#fefffe" d="M 87.5,112.5 C 87.5,112.833 87.5,113.167 87.5,113.5C 86.8299,113.019 86.8299,112.685 87.5,112.5 Z"/></g>
<g><path style="opacity:0.012" fill="#fefffe" d="M 41.5,113.5 C 40.8333,114.167 40.8333,114.167 41.5,113.5 Z"/></g>
<g><path style="opacity:0.012" fill="#fefffe" d="M 87.5,113.5 C 88.8333,114.167 88.8333,114.167 87.5,113.5 Z"/></g>
<g><path style="opacity:0.012" fill="#fefffe" d="M 38.5,114.5 C 39.8333,115.167 39.8333,115.167 38.5,114.5 Z"/></g>
<g><path style="opacity:0.012" fill="#fefffe" d="M 90.5,114.5 C 90.5,114.833 90.5,115.167 90.5,115.5C 89.8299,115.019 89.8299,114.685 90.5,114.5 Z"/></g>
<g><path style="opacity:0.012" fill="#fefffe" d="M 3.5,115.5 C 4.52502,115.897 4.69169,116.563 4,117.5C 3.53566,116.906 3.36899,116.239 3.5,115.5 Z"/></g>
<g><path style="opacity:0.012" fill="#fefffe" d="M 38.5,115.5 C 37.8333,116.167 37.8333,116.167 38.5,115.5 Z"/></g>
<g><path style="opacity:0.012" fill="#fefffe" d="M 60.5,116.5 C 62.9664,115.366 65.633,115.199 68.5,116C 65.854,116.497 63.1873,116.664 60.5,116.5 Z"/></g>
<g><path style="opacity:0.012" fill="#fefffe" d="M 90.5,115.5 C 91.8333,116.167 91.8333,116.167 90.5,115.5 Z"/></g>
<g><path style="opacity:0.012" fill="#fefffe" d="M 124.5,115.5 C 125.525,115.897 125.692,116.563 125,117.5C 124.536,116.906 124.369,116.239 124.5,115.5 Z"/></g>
<g><path style="opacity:0.012" fill="#fefffe" d="M 35.5,116.5 C 36.8333,117.167 36.8333,117.167 35.5,116.5 Z"/></g>
<g><path style="opacity:0.012" fill="#fefffe" d="M 93.5,116.5 C 92.8333,117.167 92.8333,117.167 93.5,116.5 Z"/></g>
<g><path style="opacity:0.012" fill="#fefffe" d="M 33.5,117.5 C 34.8333,118.167 34.8333,118.167 33.5,117.5 Z"/></g>
<g><path style="opacity:0.012" fill="#fefffe" d="M 95.5,117.5 C 95.5,117.833 95.5,118.167 95.5,118.5C 94.8299,118.019 94.8299,117.685 95.5,117.5 Z"/></g>
<g><path style="opacity:0.012" fill="#fefffe" d="M 5.5,118.5 C 5.63101,119.239 5.46434,119.906 5,120.5C 4.30831,119.563 4.47498,118.897 5.5,118.5 Z"/></g>
<g><path style="opacity:0.012" fill="#fefffe" d="M 33.5,118.5 C 32.8333,119.167 32.8333,119.167 33.5,118.5 Z"/></g>
<g><path style="opacity:0.012" fill="#fefffe" d="M 95.5,118.5 C 96.8333,119.167 96.8333,119.167 95.5,118.5 Z"/></g>
<g><path style="opacity:0.012" fill="#fefffe" d="M 123.5,118.5 C 124.525,118.897 124.692,119.563 124,120.5C 123.536,119.906 123.369,119.239 123.5,118.5 Z"/></g>
<g><path style="opacity:0.012" fill="#fefffe" d="M 30.5,119.5 C 31.8333,120.167 31.8333,120.167 30.5,119.5 Z"/></g>
<g><path style="opacity:0.012" fill="#fefffe" d="M 98.5,119.5 C 97.8333,120.167 97.8333,120.167 98.5,119.5 Z"/></g>
<g><path style="opacity:0.012" fill="#fefffe" d="M 28.5,120.5 C 29.8333,121.167 29.8333,121.167 28.5,120.5 Z"/></g>
<g><path style="opacity:0.012" fill="#fefffe" d="M 5.5,121.5 C 6.83333,122.167 6.83333,122.167 5.5,121.5 Z"/></g>
<g><path style="opacity:0.012" fill="#fefffe" d="M 26.5,122.5 C 26.5,122.167 26.5,121.833 26.5,121.5C 27.1667,121.5 27.8333,121.5 28.5,121.5C 28.1583,122.338 27.4916,122.672 26.5,122.5 Z"/></g>
<g><path style="opacity:0.012" fill="#fefffe" d="M 102.5,121.5 C 102.5,121.833 102.5,122.167 102.5,122.5C 99.8333,122.167 99.8333,121.833 102.5,121.5 Z"/></g>
<g><path style="opacity:0.012" fill="#fefffe" d="M 122.5,121.5 C 123.833,122.167 123.833,122.167 122.5,121.5 Z"/></g>
<g><path style="opacity:0.012" fill="#fefffe" d="M 26.5,122.5 C 25.8333,123.167 25.8333,123.167 26.5,122.5 Z"/></g>
<g><path style="opacity:0.012" fill="#fefffe" d="M 102.5,122.5 C 103.833,123.167 103.833,123.167 102.5,122.5 Z"/></g>
<g><path style="opacity:0.012" fill="#fefffe" d="M 121.5,122.5 C 121.833,122.5 122.167,122.5 122.5,122.5C 122.315,123.17 121.981,123.17 121.5,122.5 Z"/></g>
<g><path style="opacity:0.012" fill="#fefffe" d="M 23.5,123.5 C 24.8333,124.167 24.8333,124.167 23.5,123.5 Z"/></g>
<g><path style="opacity:0.012" fill="#fefffe" d="M 104.5,123.5 C 105.833,124.167 105.833,124.167 104.5,123.5 Z"/></g>
<g><path style="opacity:0.012" fill="#fefffe" d="M 120.5,123.5 C 120.833,123.5 121.167,123.5 121.5,123.5C 121.315,124.17 120.981,124.17 120.5,123.5 Z"/></g>
<g><path style="opacity:0.012" fill="#fefffe" d="M 9.5,124.5 C 9.5,124.833 9.5,125.167 9.5,125.5C 8.82986,125.019 8.82986,124.685 9.5,124.5 Z"/></g>
<g><path style="opacity:0.012" fill="#fefffe" d="M 21.5,124.5 C 22.8333,125.167 22.8333,125.167 21.5,124.5 Z"/></g>
<g><path style="opacity:0.012" fill="#fefffe" d="M 106.5,124.5 C 107.833,125.167 107.833,125.167 106.5,124.5 Z"/></g>
<g><path style="opacity:0.012" fill="#fefffe" d="M 119.5,124.5 C 119.833,124.5 120.167,124.5 120.5,124.5C 120.315,125.17 119.981,125.17 119.5,124.5 Z"/></g>
<g><path style="opacity:0.012" fill="#fefffe" d="M 9.5,125.5 C 10.8333,126.167 10.8333,126.167 9.5,125.5 Z"/></g>
<g><path style="opacity:0.012" fill="#fefffe" d="M 18.5,125.5 C 19.2389,125.369 19.9056,125.536 20.5,126C 19.5632,126.692 18.8966,126.525 18.5,125.5 Z"/></g>
<g><path style="opacity:0.012" fill="#fefffe" d="M 110.5,125.5 C 110.103,126.525 109.437,126.692 108.5,126C 109.094,125.536 109.761,125.369 110.5,125.5 Z"/></g>
<g><path style="opacity:0.012" fill="#fefffe" d="M 119.5,125.5 C 118.833,126.167 118.833,126.167 119.5,125.5 Z"/></g>
<g><path style="opacity:0.012" fill="#fefffe" d="M 12.5,127.5 C 13.9464,126.387 15.6131,126.22 17.5,127C 15.8659,127.494 14.1992,127.66 12.5,127.5 Z"/></g>
<g><path style="opacity:0.012" fill="#fefffe" d="M 111.5,127.5 C 113.288,126.378 115.288,126.211 117.5,127C 115.527,127.495 113.527,127.662 111.5,127.5 Z"/></g>
</svg>
